<?xml version="1.0" encoding="UTF-8"?>
<!DOCTYPE svg PUBLIC "-//W3C//DTD SVG 1.1//EN" "http://www.w3.org/Graphics/SVG/1.1/DTD/svg11.dtd">
<svg xmlns="http://www.w3.org/2000/svg" version="1.1" width="500px" height="500px" style="shape-rendering:geometricPrecision; text-rendering:geometricPrecision; image-rendering:optimizeQuality; fill-rule:evenodd; clip-rule:evenodd" xmlns:xlink="http://www.w3.org/1999/xlink">
<g><path style="opacity:0.251" fill="#8f8789" d="M 250.5,124.5 C 248.579,125.363 246.579,126.029 244.5,126.5C 246.085,124.018 248.085,123.352 250.5,124.5 Z"/></g>
<g><path style="opacity:0.176" fill="#969292" d="M 251.5,124.5 C 253.027,124.427 254.027,125.094 254.5,126.5C 252.821,126.715 251.821,126.048 251.5,124.5 Z"/></g>
<g><path style="opacity:1" fill="#1f1e1d" d="M 250.5,124.5 C 250.833,124.5 251.167,124.5 251.5,124.5C 251.821,126.048 252.821,126.715 254.5,126.5C 255.992,129.323 258.326,130.99 261.5,131.5C 264.432,132.8 266.766,134.8 268.5,137.5C 268.973,138.906 269.973,139.573 271.5,139.5C 274.167,141.5 276.5,143.833 278.5,146.5C 280.094,149.764 282.427,152.431 285.5,154.5C 286.08,156.749 287.413,158.415 289.5,159.5C 289.427,161.027 290.094,162.027 291.5,162.5C 291.427,164.027 292.094,165.027 293.5,165.5C 294.338,165.842 294.672,166.508 294.5,167.5C 295.136,169.795 296.469,171.461 298.5,172.5C 299.441,174.05 300.107,175.716 300.5,177.5C 300.427,179.027 301.094,180.027 302.5,180.5C 303.404,181.209 303.737,182.209 303.5,183.5C 302.652,185.481 302.152,187.481 302,189.5C 302.308,188.692 302.808,188.025 303.5,187.5C 304.612,189.419 305.946,191.086 307.5,192.5C 308.566,194.701 309.233,197.035 309.5,199.5C 309.077,201.781 309.744,203.448 311.5,204.5C 312.369,206.717 312.702,209.05 312.5,211.5C 314.003,223.561 314.67,236.561 314.5,250.5C 312.167,250.5 309.833,250.5 307.5,250.5C 302.09,248.451 296.756,246.451 291.5,244.5C 290.01,242.72 288.01,242.054 285.5,242.5C 283.876,242.64 282.71,241.973 282,240.5C 281.503,237.854 281.336,235.187 281.5,232.5C 281.665,228.818 281.499,225.152 281,221.5C 280.768,220.263 280.268,219.263 279.5,218.5C 280.26,213.131 278.926,208.465 275.5,204.5C 275.771,202.62 275.104,201.287 273.5,200.5C 273.448,197.654 272.448,195.32 270.5,193.5C 269.662,193.158 269.328,192.492 269.5,191.5C 269.13,188.733 267.796,186.733 265.5,185.5C 264.641,181.108 262.307,177.775 258.5,175.5C 257.833,172.833 256.167,171.167 253.5,170.5C 253.5,170.167 253.5,169.833 253.5,169.5C 250.833,164.167 248.167,164.167 245.5,169.5C 243.738,170.262 242.738,171.596 242.5,173.5C 242.167,174.5 241.5,175.167 240.5,175.5C 237.636,177.023 235.969,179.357 235.5,182.5C 233.738,183.262 232.738,184.596 232.5,186.5C 232.167,187.167 231.833,187.833 231.5,188.5C 230.094,188.973 229.427,189.973 229.5,191.5C 227.461,192.911 226.461,194.911 226.5,197.5C 226.34,199.153 225.674,200.486 224.5,201.5C 223.069,202.78 222.402,204.447 222.5,206.5C 218.677,220.203 217.011,234.203 217.5,248.5C 217.096,253.783 217.762,258.783 219.5,263.5C 219.054,266.01 219.72,268.01 221.5,269.5C 224.531,277.236 227.864,284.902 231.5,292.5C 231.738,294.404 232.738,295.738 234.5,296.5C 236.25,297.659 237.25,299.326 237.5,301.5C 237.722,303.607 238.722,305.274 240.5,306.5C 239.746,309.777 239.246,313.11 239,316.5C 238.549,314.071 237.715,313.904 236.5,316C 237.684,317.145 237.684,318.312 236.5,319.5C 230.464,324.852 223.464,328.019 215.5,329C 214.614,327.385 213.614,325.885 212.5,324.5C 211.864,322.205 210.531,320.539 208.5,319.5C 202.341,312.041 197.674,303.708 194.5,294.5C 194.34,292.847 193.674,291.514 192.5,290.5C 191.265,287.67 190.265,284.67 189.5,281.5C 189.598,279.447 188.931,277.78 187.5,276.5C 187.5,276.167 187.5,275.833 187.5,275.5C 186.786,268.595 185.452,261.928 183.5,255.5C 181.618,239.686 182.618,224.019 186.5,208.5C 187.117,208.389 187.617,208.056 188,207.5C 188.495,205.527 188.662,203.527 188.5,201.5C 189.216,198.402 190.216,195.402 191.5,192.5C 193.834,190.824 194.834,188.491 194.5,185.5C 196.771,183.388 198.104,180.721 198.5,177.5C 199.828,172.835 202.161,168.835 205.5,165.5C 206.906,165.027 207.573,164.027 207.5,162.5C 208.906,162.027 209.573,161.027 209.5,159.5C 213.308,155.878 216.641,151.878 219.5,147.5C 220.167,146.167 221.167,145.167 222.5,144.5C 223.5,144.167 224.167,143.5 224.5,142.5C 227.427,141.243 229.761,139.243 231.5,136.5C 232.833,135.833 233.833,134.833 234.5,133.5C 234.833,133.5 235.167,133.5 235.5,133.5C 239.082,131.88 242.082,129.547 244.5,126.5C 246.579,126.029 248.579,125.363 250.5,124.5 Z"/></g>
<g><path style="opacity:0.153" fill="#a89c9d" d="M 244.5,126.5 C 242.082,129.547 239.082,131.88 235.5,133.5C 237.567,130.114 240.567,127.781 244.5,126.5 Z"/></g>
<g><path style="opacity:0.122" fill="#9d909b" d="M 254.5,126.5 C 257.37,127.433 259.704,129.1 261.5,131.5C 258.326,130.99 255.992,129.323 254.5,126.5 Z"/></g>
<g><path style="opacity:0.102" fill="#bdbcbc" d="M 234.5,133.5 C 233.833,134.833 232.833,135.833 231.5,136.5C 231.5,134.5 232.5,133.5 234.5,133.5 Z"/></g>
<g><path style="opacity:0.012" fill="#b2b1b2" d="M 268.5,137.5 C 270.027,137.427 271.027,138.094 271.5,139.5C 269.973,139.573 268.973,138.906 268.5,137.5 Z"/></g>
<g><path style="opacity:0.357" fill="#7c797a" d="M 231.5,136.5 C 229.761,139.243 227.427,141.243 224.5,142.5C 226.239,139.757 228.573,137.757 231.5,136.5 Z"/></g>
<g><path style="opacity:0.102" fill="#c5c2c2" d="M 224.5,142.5 C 224.167,143.5 223.5,144.167 222.5,144.5C 222.5,143.167 223.167,142.5 224.5,142.5 Z"/></g>
<g><path style="opacity:0.306" fill="#8e898b" d="M 278.5,146.5 C 281.573,148.569 283.906,151.236 285.5,154.5C 282.427,152.431 280.094,149.764 278.5,146.5 Z"/></g>
<g><path style="opacity:0.196" fill="#918c8e" d="M 219.5,147.5 C 216.641,151.878 213.308,155.878 209.5,159.5C 211.882,154.752 215.216,150.752 219.5,147.5 Z"/></g>
<g><path style="opacity:0.196" fill="#9d9898" d="M 285.5,154.5 C 287.587,155.585 288.92,157.251 289.5,159.5C 287.413,158.415 286.08,156.749 285.5,154.5 Z"/></g>
<g><path style="opacity:0.149" fill="#aca9a9" d="M 209.5,159.5 C 209.573,161.027 208.906,162.027 207.5,162.5C 207.427,160.973 208.094,159.973 209.5,159.5 Z"/></g>
<g><path style="opacity:0.078" fill="#acabac" d="M 289.5,159.5 C 290.906,159.973 291.573,160.973 291.5,162.5C 290.094,162.027 289.427,161.027 289.5,159.5 Z"/></g>
<g><path style="opacity:0.09" fill="#aeadad" d="M 207.5,162.5 C 207.573,164.027 206.906,165.027 205.5,165.5C 205.427,163.973 206.094,162.973 207.5,162.5 Z"/></g>
<g><path style="opacity:0.102" fill="#bba3a2" d="M 291.5,162.5 C 292.906,162.973 293.573,163.973 293.5,165.5C 292.094,165.027 291.427,164.027 291.5,162.5 Z"/></g>
<g><path style="opacity:0.01" fill="#c3c0c2" d="M 253.5,169.5 C 251.956,169.297 250.622,168.63 249.5,167.5C 248.378,168.63 247.044,169.297 245.5,169.5C 248.167,164.167 250.833,164.167 253.5,169.5 Z"/></g>
<g><path style="opacity:0.004" fill="#c8c5c6" d="M 245.5,169.5 C 245.262,171.404 244.262,172.738 242.5,173.5C 242.738,171.596 243.738,170.262 245.5,169.5 Z"/></g>
<g><path style="opacity:0.055" fill="#b2abab" d="M 294.5,167.5 C 296.543,168.579 297.876,170.246 298.5,172.5C 296.469,171.461 295.136,169.795 294.5,167.5 Z"/></g>
<g><path style="opacity:0.096" fill="#959292" d="M 253.5,170.5 C 256.167,171.167 257.833,172.833 258.5,175.5C 256.5,174.167 254.833,172.5 253.5,170.5 Z"/></g>
<g><path style="opacity:0.016" fill="#aca8ab" d="M 240.5,175.5 C 239.214,178.117 237.547,180.45 235.5,182.5C 235.969,179.357 237.636,177.023 240.5,175.5 Z"/></g>
<g><path style="opacity:0.063" fill="#908d8d" d="M 300.5,177.5 C 301.906,177.973 302.573,178.973 302.5,180.5C 301.094,180.027 300.427,179.027 300.5,177.5 Z"/></g>
<g><path style="opacity:0.129" fill="#999797" d="M 258.5,175.5 C 262.307,177.775 264.641,181.108 265.5,185.5C 263.169,182.175 260.836,178.842 258.5,175.5 Z"/></g>
<g><path style="opacity:0.31" fill="#848282" d="M 198.5,177.5 C 198.104,180.721 196.771,183.388 194.5,185.5C 194.896,182.279 196.229,179.612 198.5,177.5 Z"/></g>
<g><path style="opacity:0.004" fill="#cecdce" d="M 235.5,182.5 C 235.262,184.404 234.262,185.738 232.5,186.5C 232.738,184.596 233.738,183.262 235.5,182.5 Z"/></g>
<g><path style="opacity:0.412" fill="#958786" d="M 265.5,185.5 C 267.796,186.733 269.13,188.733 269.5,191.5C 267.684,189.882 266.351,187.882 265.5,185.5 Z"/></g>
<g><path style="opacity:0.896" fill="#5b5556" d="M 303.5,183.5 C 305.625,186.088 306.958,189.088 307.5,192.5C 305.946,191.086 304.612,189.419 303.5,187.5C 302.808,188.025 302.308,188.692 302,189.5C 302.152,187.481 302.652,185.481 303.5,183.5 Z"/></g>
<g><path style="opacity:0.306" fill="#777172" d="M 194.5,185.5 C 194.834,188.491 193.834,190.824 191.5,192.5C 191.707,189.759 192.707,187.426 194.5,185.5 Z"/></g>
<g><path style="opacity:0.035" fill="#b0aeb0" d="M 231.5,188.5 C 231.573,190.027 230.906,191.027 229.5,191.5C 229.427,189.973 230.094,188.973 231.5,188.5 Z"/></g>
<g><path style="opacity:0.067" fill="#9e9d9e" d="M 229.5,191.5 C 229.008,193.819 228.008,195.819 226.5,197.5C 226.461,194.911 227.461,192.911 229.5,191.5 Z"/></g>
<g><path style="opacity:0.141" fill="#9f9b9c" d="M 270.5,193.5 C 272.448,195.32 273.448,197.654 273.5,200.5C 271.935,198.491 270.935,196.157 270.5,193.5 Z"/></g>
<g><path style="opacity:0.106" fill="#949194" d="M 273.5,200.5 C 275.104,201.287 275.771,202.62 275.5,204.5C 274.326,203.486 273.66,202.153 273.5,200.5 Z"/></g>
<g><path style="opacity:0.259" fill="#83797a" d="M 309.5,199.5 C 310.931,200.78 311.598,202.447 311.5,204.5C 309.744,203.448 309.077,201.781 309.5,199.5 Z"/></g>
<g><path style="opacity:0.063" fill="#9c9a9a" d="M 224.5,201.5 C 224.598,203.553 223.931,205.22 222.5,206.5C 222.402,204.447 223.069,202.78 224.5,201.5 Z"/></g>
<g><path style="opacity:0.075" fill="#949092" d="M 188.5,201.5 C 188.662,203.527 188.495,205.527 188,207.5C 187.617,208.056 187.117,208.389 186.5,208.5C 186.41,205.848 187.076,203.515 188.5,201.5 Z"/></g>
<g><path style="opacity:0.58" fill="#6c6869" d="M 275.5,204.5 C 278.926,208.465 280.26,213.131 279.5,218.5C 277.595,214.103 276.261,209.437 275.5,204.5 Z"/></g>
<g><path style="opacity:0.137" fill="#928d8d" d="M 279.5,218.5 C 280.268,219.263 280.768,220.263 281,221.5C 281.499,225.152 281.665,228.818 281.5,232.5C 280.578,228.005 279.911,223.338 279.5,218.5 Z"/></g>
<g><path style="opacity:0.961" fill="#625c5e" d="M 312.5,211.5 C 314.347,216.556 315.514,221.889 316,227.5C 316.667,235.833 316.667,244.167 316,252.5C 315.333,253.167 314.667,253.833 314,254.5C 311.686,253.267 309.519,251.933 307.5,250.5C 309.833,250.5 312.167,250.5 314.5,250.5C 314.67,236.561 314.003,223.561 312.5,211.5 Z"/></g>
<g><path style="opacity:0.058" fill="#b4b2b3" d="M 236.5,242.5 C 240.486,241.834 244.653,241.501 249,241.5C 255.731,241.353 262.231,242.02 268.5,243.5C 257.852,242.723 247.185,242.39 236.5,242.5 Z"/></g>
<g><path style="opacity:0.373" fill="#767475" d="M 285.5,242.5 C 288.01,242.054 290.01,242.72 291.5,244.5C 289.214,244.405 287.214,243.738 285.5,242.5 Z"/></g>
<g><path style="opacity:0.999" fill="#201f1d" d="M 236.5,242.5 C 247.185,242.39 257.852,242.723 268.5,243.5C 270.415,243.216 272.081,243.549 273.5,244.5C 277.911,246.13 282.578,247.13 287.5,247.5C 291.431,248.389 295.098,249.722 298.5,251.5C 300.522,253.693 303.189,254.693 306.5,254.5C 307.492,254.328 308.158,254.662 308.5,255.5C 309.659,257.25 311.326,258.25 313.5,258.5C 314.791,258.263 315.791,258.596 316.5,259.5C 317.035,261.446 318.368,262.446 320.5,262.5C 323.704,263.383 326.371,265.05 328.5,267.5C 329.684,268.688 329.684,269.855 328.5,271C 331.764,271.638 334.764,272.804 337.5,274.5C 338.5,275.167 339.5,275.833 340.5,276.5C 340.738,278.404 341.738,279.738 343.5,280.5C 343.833,280.5 344.167,280.5 344.5,280.5C 344.738,282.404 345.738,283.738 347.5,284.5C 348.167,284.833 348.833,285.167 349.5,285.5C 349.427,287.027 350.094,288.027 351.5,288.5C 352.08,290.749 353.413,292.415 355.5,293.5C 355.738,295.404 356.738,296.738 358.5,297.5C 358.738,299.404 359.738,300.738 361.5,301.5C 361.427,303.027 362.094,304.027 363.5,304.5C 365.25,305.659 366.25,307.326 366.5,309.5C 366.241,311.989 367.241,313.656 369.5,314.5C 371.293,316.426 372.293,318.759 372.5,321.5C 372.427,323.027 373.094,324.027 374.5,324.5C 378.147,333.549 380.98,342.883 383,352.5C 383.789,354.712 383.622,356.712 382.5,358.5C 380.973,358.427 379.973,359.094 379.5,360.5C 376.911,360.461 374.911,361.461 373.5,363.5C 371.62,363.229 370.287,363.896 369.5,365.5C 368.167,365.833 366.833,366.167 365.5,366.5C 362.834,366.933 360.168,367.433 357.5,368C 356.244,368.417 355.577,369.25 355.5,370.5C 353.194,370.993 350.861,371.326 348.5,371.5C 345.572,371.565 342.905,372.232 340.5,373.5C 333.063,374.258 325.563,374.924 318,375.5C 310.517,374.79 303.017,374.29 295.5,374C 293.942,373.79 292.609,373.29 291.5,372.5C 289.162,370.96 286.495,370.294 283.5,370.5C 282.5,369.833 281.5,369.167 280.5,368.5C 279.657,366.827 278.324,365.66 276.5,365C 277.167,364.667 277.833,364.333 278.5,364C 275.724,362.963 272.89,362.13 270,361.5C 268.188,361.493 266.688,362.16 265.5,363.5C 263.998,362.917 262.665,362.084 261.5,361C 262.641,360.259 262.641,359.425 261.5,358.5C 262.025,357.808 262.692,357.308 263.5,357C 263.167,356.667 262.833,356.333 262.5,356C 266.5,355.333 266.5,354.667 262.5,354C 263.381,353.292 264.047,352.458 264.5,351.5C 266.749,350.92 268.415,349.587 269.5,347.5C 271.219,344.781 273.553,342.781 276.5,341.5C 277.833,340.833 278.833,339.833 279.5,338.5C 280.144,336.522 281.478,335.189 283.5,334.5C 302.814,340.984 322.48,342.151 342.5,338C 341.663,336.989 341.33,335.822 341.5,334.5C 341.13,331.733 339.796,329.733 337.5,328.5C 335.568,325.634 333.901,322.634 332.5,319.5C 331.306,315.637 328.973,312.637 325.5,310.5C 323.833,309.5 322.5,308.167 321.5,306.5C 320.833,303.833 319.167,302.167 316.5,301.5C 315.128,300.488 313.795,299.488 312.5,298.5C 311.862,292.586 308.195,289.586 301.5,289.5C 301.297,287.61 301.963,286.11 303.5,285C 301.567,284.749 299.734,284.249 298,283.5C 297.383,284.449 297.549,285.282 298.5,286C 296.681,286.783 295.348,286.283 294.5,284.5C 295.025,283.808 295.692,283.308 296.5,283C 295.299,282.097 294.465,280.931 294,279.5C 292.193,284.25 289.86,284.583 287,280.5C 284.606,281.136 282.106,281.136 279.5,280.5C 279.167,280.5 278.833,280.5 278.5,280.5C 275.619,278.32 272.286,277.32 268.5,277.5C 257.523,276.649 246.523,276.316 235.5,276.5C 232.721,276.721 230.054,276.388 227.5,275.5C 223.056,265.894 221.056,255.894 221.5,245.5C 224.428,245.435 227.095,244.768 229.5,243.5C 231.607,242.532 233.941,242.198 236.5,242.5 Z"/></g>
<g><path style="opacity:0.404" fill="#706a6b" d="M 229.5,243.5 C 227.095,244.768 224.428,245.435 221.5,245.5C 223.838,243.96 226.505,243.294 229.5,243.5 Z"/></g>
<g><path style="opacity:0.337" fill="#716e6f" d="M 273.5,244.5 C 278.546,244.265 283.213,245.265 287.5,247.5C 282.578,247.13 277.911,246.13 273.5,244.5 Z"/></g>
<g><path style="opacity:0.329" fill="#7f7c7d" d="M 298.5,251.5 C 301.443,251.98 304.11,252.98 306.5,254.5C 303.189,254.693 300.522,253.693 298.5,251.5 Z"/></g>
<g><path style="opacity:0.071" fill="#a8a3a4" d="M 308.5,255.5 C 310.674,255.75 312.341,256.75 313.5,258.5C 311.326,258.25 309.659,257.25 308.5,255.5 Z"/></g>
<g><path style="opacity:0.016" fill="#958c90" d="M 316.5,259.5 C 318.23,260.026 319.564,261.026 320.5,262.5C 318.368,262.446 317.035,261.446 316.5,259.5 Z"/></g>
<g><path style="opacity:0.129" fill="#928e91" d="M 217.5,248.5 C 218.487,253.32 219.153,258.32 219.5,263.5C 217.762,258.783 217.096,253.783 217.5,248.5 Z"/></g>
<g><path style="opacity:0.412" fill="#766f76" d="M 181.5,265.5 C 180.739,264.609 179.739,263.942 178.5,263.5C 176.823,264.187 175.156,264.854 173.5,265.5C 175.254,262.366 177.754,261.366 181,262.5C 181.483,263.448 181.649,264.448 181.5,265.5 Z"/></g>
<g><path style="opacity:0.224" fill="#94888b" d="M 173.5,265.5 C 173.027,266.906 172.027,267.573 170.5,267.5C 170.973,266.094 171.973,265.427 173.5,265.5 Z"/></g>
<g><path style="opacity:0.42" fill="#7f797a" d="M 219.5,263.5 C 220.738,265.214 221.405,267.214 221.5,269.5C 219.72,268.01 219.054,266.01 219.5,263.5 Z"/></g>
<g><path style="opacity:0.639" fill="#6a6065" d="M 170.5,267.5 C 169.556,269.688 167.889,271.021 165.5,271.5C 166.539,269.469 168.205,268.136 170.5,267.5 Z"/></g>
<g><path style="opacity:1" fill="#201f1d" d="M 181.5,265.5 C 183.247,273.438 185.247,281.438 187.5,289.5C 187.216,291.877 187.216,294.044 187.5,296C 185.887,296.089 184.72,295.255 184,293.5C 183.647,294.672 183.813,295.838 184.5,297C 184.354,298.727 183.687,298.894 182.5,297.5C 181.571,298.689 181.238,300.022 181.5,301.5C 180.167,301.5 178.833,301.5 177.5,301.5C 177.5,302.5 177.5,303.5 177.5,304.5C 176.5,304.5 175.5,304.5 174.5,304.5C 174.5,305.833 174.5,307.167 174.5,308.5C 169.864,308.453 168.531,310.453 170.5,314.5C 169.974,316.23 168.974,317.564 167.5,318.5C 166.094,318.973 165.427,319.973 165.5,321.5C 164.974,323.23 163.974,324.564 162.5,325.5C 161.094,325.973 160.427,326.973 160.5,328.5C 160.737,329.791 160.404,330.791 159.5,331.5C 158.312,332.684 157.145,332.684 156,331.5C 155.503,334.146 155.336,336.813 155.5,339.5C 158.5,339.5 161.5,339.5 164.5,339.5C 179.284,341.209 193.95,340.542 208.5,337.5C 210.806,337.007 213.139,336.674 215.5,336.5C 215.202,339.336 215.869,339.836 217.5,338C 216.316,336.855 216.316,335.688 217.5,334.5C 222.63,334.022 226.963,332.022 230.5,328.5C 230.5,327.833 230.833,327.5 231.5,327.5C 235.13,327.299 237.797,325.632 239.5,322.5C 244.25,318.148 248.916,313.815 253.5,309.5C 257.895,307.438 260.895,304.104 262.5,299.5C 262.5,299.167 262.5,298.833 262.5,298.5C 264.5,298.5 265.5,297.5 265.5,295.5C 266.906,295.027 267.573,294.027 267.5,292.5C 268.308,289.55 269.642,286.883 271.5,284.5C 273.5,284.5 275.5,284.5 277.5,284.5C 279.292,284.366 280.958,284.699 282.5,285.5C 283.287,287.104 284.62,287.771 286.5,287.5C 291.676,289.314 296.676,291.648 301.5,294.5C 302.038,296.117 302.371,297.784 302.5,299.5C 300.896,300.287 300.229,301.62 300.5,303.5C 299.5,305.5 298.5,307.5 297.5,309.5C 296.279,308.972 295.113,308.305 294,307.5C 293.503,310.146 293.336,312.813 293.5,315.5C 291.207,319.758 288.207,323.424 284.5,326.5C 283.504,326.586 282.671,326.252 282,325.5C 281.138,327.087 280.471,328.754 280,330.5C 277.871,329.137 277.371,329.471 278.5,331.5C 276.994,332.747 275.494,332.747 274,331.5C 273.508,332.549 273.674,333.549 274.5,334.5C 273.397,334.998 272.397,335.331 271.5,335.5C 272.246,336.736 272.579,338.07 272.5,339.5C 271.178,339.67 270.011,339.337 269,338.5C 268.383,339.449 268.549,340.282 269.5,341C 268.167,341.333 266.833,341.667 265.5,342C 266.252,342.671 266.586,343.504 266.5,344.5C 265.06,345.363 263.726,345.363 262.5,344.5C 261.614,345.325 261.281,346.325 261.5,347.5C 259.473,347.338 257.473,347.505 255.5,348C 256.337,349.011 256.67,350.178 256.5,351.5C 254.704,353.9 252.37,355.567 249.5,356.5C 247.62,356.229 246.287,356.896 245.5,358.5C 241.878,359.605 238.211,360.605 234.5,361.5C 233.873,362.417 233.539,363.417 233.5,364.5C 223.748,369.142 213.414,372.308 202.5,374C 188.167,374.667 173.833,374.667 159.5,374C 154.923,373.275 150.59,372.108 146.5,370.5C 144.723,369.4 142.723,368.566 140.5,368C 138.581,362.368 135.081,360.868 130,363.5C 129.167,363.333 128.333,363.167 127.5,363C 128.851,360.875 128.185,359.708 125.5,359.5C 122.937,359.737 122.937,360.237 125.5,361C 124.207,361.49 122.873,361.657 121.5,361.5C 121.167,361.5 120.833,361.5 120.5,361.5C 120.027,360.094 119.027,359.427 117.5,359.5C 116.252,358.666 115.585,357.333 115.5,355.5C 115.568,352.562 116.234,349.895 117.5,347.5C 119.483,344.201 120.483,340.534 120.5,336.5C 120.752,332.673 122.085,329.34 124.5,326.5C 126.074,324.898 126.741,322.898 126.5,320.5C 128.074,315.68 130.407,311.347 133.5,307.5C 134.397,306.402 135.23,306.402 136,307.5C 136.505,305.482 137.005,303.482 137.5,301.5C 138.906,301.027 139.573,300.027 139.5,298.5C 141.587,297.415 142.92,295.749 143.5,293.5C 145.914,292.089 147.581,290.089 148.5,287.5C 149.167,286.167 150.167,285.167 151.5,284.5C 154.5,282.167 157.167,279.5 159.5,276.5C 161.878,275.308 163.878,273.641 165.5,271.5C 167.889,271.021 169.556,269.688 170.5,267.5C 172.027,267.573 173.027,266.906 173.5,265.5C 175.156,264.854 176.823,264.187 178.5,263.5C 179.739,263.942 180.739,264.609 181.5,265.5 Z"/></g>
<g><path style="opacity:0.898" fill="#666264" d="M 328.5,267.5 C 331.792,269.458 334.792,271.791 337.5,274.5C 334.764,272.804 331.764,271.638 328.5,271C 329.684,269.855 329.684,268.688 328.5,267.5 Z"/></g>
<g><path style="opacity:0.255" fill="#7c787b" d="M 165.5,271.5 C 163.878,273.641 161.878,275.308 159.5,276.5C 160.712,273.893 162.712,272.226 165.5,271.5 Z"/></g>
<g><path style="opacity:0.082" fill="#9a9496" d="M 183.5,255.5 C 185.452,261.928 186.786,268.595 187.5,275.5C 185.292,269.127 183.959,262.46 183.5,255.5 Z"/></g>
<g><path style="opacity:0.075" fill="#857c7d" d="M 227.5,275.5 C 230.054,276.388 232.721,276.721 235.5,276.5C 234.378,277.156 233.045,277.489 231.5,277.5C 229.667,277.415 228.334,276.748 227.5,275.5 Z"/></g>
<g><path style="opacity:0.365" fill="#7b767a" d="M 268.5,277.5 C 272.286,277.32 275.619,278.32 278.5,280.5C 274.884,280.101 271.55,279.101 268.5,277.5 Z"/></g>
<g><path style="opacity:0.141" fill="#baadb7" d="M 340.5,276.5 C 342.262,277.262 343.262,278.596 343.5,280.5C 341.738,279.738 340.738,278.404 340.5,276.5 Z"/></g>
<g><path style="opacity:0.196" fill="#848183" d="M 159.5,276.5 C 157.167,279.5 154.5,282.167 151.5,284.5C 153.167,280.833 155.833,278.167 159.5,276.5 Z"/></g>
<g><path style="opacity:0.078" fill="#bcb3bb" d="M 187.5,276.5 C 188.931,277.78 189.598,279.447 189.5,281.5C 188.069,280.22 187.402,278.553 187.5,276.5 Z"/></g>
<g><path style="opacity:0.161" fill="#b4b0b2" d="M 344.5,280.5 C 346.262,281.262 347.262,282.596 347.5,284.5C 345.738,283.738 344.738,282.404 344.5,280.5 Z"/></g>
<g><path style="opacity:0.114" fill="#90838f" d="M 277.5,284.5 C 275.5,284.5 273.5,284.5 271.5,284.5C 271.811,283.522 272.478,282.855 273.5,282.5C 275.026,282.994 276.359,283.661 277.5,284.5 Z"/></g>
<g><path style="opacity:0.934" fill="#3a3637" d="M 312.5,298.5 C 311.167,297.833 310.167,296.833 309.5,295.5C 309.027,294.094 308.027,293.427 306.5,293.5C 302.222,291.023 297.888,288.523 293.5,286C 288.643,284.395 283.976,282.562 279.5,280.5C 282.106,281.136 284.606,281.136 287,280.5C 289.86,284.583 292.193,284.25 294,279.5C 294.465,280.931 295.299,282.097 296.5,283C 295.692,283.308 295.025,283.808 294.5,284.5C 295.348,286.283 296.681,286.783 298.5,286C 297.549,285.282 297.383,284.449 298,283.5C 299.734,284.249 301.567,284.749 303.5,285C 301.963,286.11 301.297,287.61 301.5,289.5C 308.195,289.586 311.862,292.586 312.5,298.5 Z"/></g>
<g><path style="opacity:0.059" fill="#cac9ca" d="M 282.5,285.5 C 284.153,285.66 285.486,286.326 286.5,287.5C 284.62,287.771 283.287,287.104 282.5,285.5 Z"/></g>
<g><path style="opacity:0.09" fill="#b4b0b4" d="M 349.5,285.5 C 350.906,285.973 351.573,286.973 351.5,288.5C 350.094,288.027 349.427,287.027 349.5,285.5 Z"/></g>
<g><path style="opacity:0.247" fill="#9f979e" d="M 351.5,288.5 C 353.587,289.585 354.92,291.251 355.5,293.5C 353.413,292.415 352.08,290.749 351.5,288.5 Z"/></g>
<g><path style="opacity:0.224" fill="#959194" d="M 148.5,287.5 C 147.581,290.089 145.914,292.089 143.5,293.5C 144.419,290.911 146.086,288.911 148.5,287.5 Z"/></g>
<g><path style="opacity:0.043" fill="#acaaaa" d="M 192.5,290.5 C 193.674,291.514 194.34,292.847 194.5,294.5C 192.896,293.713 192.229,292.38 192.5,290.5 Z"/></g>
<g><path style="opacity:0.224" fill="#908a8c" d="M 306.5,293.5 C 308.027,293.427 309.027,294.094 309.5,295.5C 307.973,295.573 306.973,294.906 306.5,293.5 Z"/></g>
<g><path style="opacity:0.361" fill="#978c8e" d="M 143.5,293.5 C 142.92,295.749 141.587,297.415 139.5,298.5C 140.08,296.251 141.413,294.585 143.5,293.5 Z"/></g>
<g><path style="opacity:0.122" fill="#9e9b9c" d="M 231.5,292.5 C 233.262,293.262 234.262,294.596 234.5,296.5C 232.738,295.738 231.738,294.404 231.5,292.5 Z"/></g>
<g><path style="opacity:0.145" fill="#939393" d="M 267.5,292.5 C 267.573,294.027 266.906,295.027 265.5,295.5C 265.427,293.973 266.094,292.973 267.5,292.5 Z"/></g>
<g><path style="opacity:0.286" fill="#878383" d="M 355.5,293.5 C 357.262,294.262 358.262,295.596 358.5,297.5C 356.738,296.738 355.738,295.404 355.5,293.5 Z"/></g>
<g><path style="opacity:0.078" fill="#cecece" d="M 301.5,294.5 C 303.597,295.879 303.93,297.545 302.5,299.5C 302.371,297.784 302.038,296.117 301.5,294.5 Z"/></g>
<g><path style="opacity:0.961" fill="#474044" d="M 187.5,289.5 C 189.175,291.179 190.008,293.179 190,295.5C 182.969,301.365 176.469,307.698 170.5,314.5C 168.531,310.453 169.864,308.453 174.5,308.5C 174.5,307.167 174.5,305.833 174.5,304.5C 175.5,304.5 176.5,304.5 177.5,304.5C 177.5,303.5 177.5,302.5 177.5,301.5C 178.833,301.5 180.167,301.5 181.5,301.5C 181.238,300.022 181.571,298.689 182.5,297.5C 183.687,298.894 184.354,298.727 184.5,297C 183.813,295.838 183.647,294.672 184,293.5C 184.72,295.255 185.887,296.089 187.5,296C 187.216,294.044 187.216,291.877 187.5,289.5 Z"/></g>
<g><path style="opacity:0.153" fill="#9d999c" d="M 265.5,295.5 C 265.5,297.5 264.5,298.5 262.5,298.5C 263.167,297.167 264.167,296.167 265.5,295.5 Z"/></g>
<g><path style="opacity:0.278" fill="#898586" d="M 358.5,297.5 C 360.262,298.262 361.262,299.596 361.5,301.5C 359.738,300.738 358.738,299.404 358.5,297.5 Z"/></g>
<g><path style="opacity:0.212" fill="#92888a" d="M 139.5,298.5 C 139.573,300.027 138.906,301.027 137.5,301.5C 137.427,299.973 138.094,298.973 139.5,298.5 Z"/></g>
<g><path style="opacity:0.067" fill="#bcbbbc" d="M 302.5,299.5 C 302.34,301.153 301.674,302.486 300.5,303.5C 300.229,301.62 300.896,300.287 302.5,299.5 Z"/></g>
<g><path style="opacity:0.294" fill="#817b7c" d="M 316.5,301.5 C 319.167,302.167 320.833,303.833 321.5,306.5C 319.5,305.167 317.833,303.5 316.5,301.5 Z"/></g>
<g><path style="opacity:0.082" fill="#999199" d="M 361.5,301.5 C 362.906,301.973 363.573,302.973 363.5,304.5C 362.094,304.027 361.427,303.027 361.5,301.5 Z"/></g>
<g><path style="opacity:0.794" fill="#6d6367" d="M 137.5,301.5 C 137.005,303.482 136.505,305.482 136,307.5C 135.23,306.402 134.397,306.402 133.5,307.5C 133.845,304.802 135.178,302.802 137.5,301.5 Z"/></g>
<g><path style="opacity:0.896" fill="#574f55" d="M 297.5,309.5 C 296.154,311.537 294.82,313.537 293.5,315.5C 293.336,312.813 293.503,310.146 294,307.5C 295.113,308.305 296.279,308.972 297.5,309.5 Z"/></g>
<g><path style="opacity:0.165" fill="#767275" d="M 262.5,299.5 C 260.895,304.104 257.895,307.438 253.5,309.5C 256.529,306.141 259.529,302.808 262.5,299.5 Z"/></g>
<g><path style="opacity:0.996" fill="#3b3539" d="M 237.5,301.5 C 240.506,304.839 243.506,308.172 246.5,311.5C 243.874,315.134 240.541,317.801 236.5,319.5C 237.684,318.312 237.684,317.145 236.5,316C 237.715,313.904 238.549,314.071 239,316.5C 239.246,313.11 239.746,309.777 240.5,306.5C 238.722,305.274 237.722,303.607 237.5,301.5 Z"/></g>
<g><path style="opacity:0.012" fill="#9c9a9a" d="M 325.5,310.5 C 328.973,312.637 331.306,315.637 332.5,319.5C 329.791,316.792 327.458,313.792 325.5,310.5 Z"/></g>
<g><path style="opacity:0.694" fill="#675f63" d="M 366.5,309.5 C 367.89,310.899 368.89,312.566 369.5,314.5C 367.241,313.656 366.241,311.989 366.5,309.5 Z"/></g>
<g><path style="opacity:0.004" fill="#d6d4d4" d="M 167.5,318.5 C 167.573,320.027 166.906,321.027 165.5,321.5C 165.427,319.973 166.094,318.973 167.5,318.5 Z"/></g>
<g><path style="opacity:0.353" fill="#898588" d="M 208.5,319.5 C 210.531,320.539 211.864,322.205 212.5,324.5C 210.457,323.421 209.124,321.754 208.5,319.5 Z"/></g>
<g><path style="opacity:0.392" fill="#7d757a" d="M 126.5,320.5 C 126.741,322.898 126.074,324.898 124.5,326.5C 124.259,324.102 124.926,322.102 126.5,320.5 Z"/></g>
<g><path style="opacity:0.02" fill="#c4c4c4" d="M 372.5,321.5 C 373.906,321.973 374.573,322.973 374.5,324.5C 373.094,324.027 372.427,323.027 372.5,321.5 Z"/></g>
<g><path style="opacity:0.549" fill="#736c6f" d="M 239.5,322.5 C 237.797,325.632 235.13,327.299 231.5,327.5C 234.12,325.838 236.787,324.172 239.5,322.5 Z"/></g>
<g><path style="opacity:0.055" fill="#848384" d="M 162.5,325.5 C 162.573,327.027 161.906,328.027 160.5,328.5C 160.427,326.973 161.094,325.973 162.5,325.5 Z"/></g>
<g><path style="opacity:0.243" fill="#9a9697" d="M 337.5,328.5 C 339.796,329.733 341.13,331.733 341.5,334.5C 339.684,332.882 338.351,330.882 337.5,328.5 Z"/></g>
<g><path style="opacity:1" fill="#464143" d="M 284.5,326.5 C 281.23,331.44 277.23,335.773 272.5,339.5C 272.579,338.07 272.246,336.736 271.5,335.5C 272.397,335.331 273.397,334.998 274.5,334.5C 273.674,333.549 273.508,332.549 274,331.5C 275.494,332.747 276.994,332.747 278.5,331.5C 277.371,329.471 277.871,329.137 280,330.5C 280.471,328.754 281.138,327.087 282,325.5C 282.671,326.252 283.504,326.586 284.5,326.5 Z"/></g>
<g><path style="opacity:0.969" fill="#696367" d="M 159.5,331.5 C 158.412,333.583 157.412,335.749 156.5,338C 159.365,338.183 162.031,338.683 164.5,339.5C 161.5,339.5 158.5,339.5 155.5,339.5C 155.336,336.813 155.503,334.146 156,331.5C 157.145,332.684 158.312,332.684 159.5,331.5 Z"/></g>
<g><path style="opacity:0.463" fill="#585155" d="M 230.5,328.5 C 226.963,332.022 222.63,334.022 217.5,334.5C 221.374,331.733 225.707,329.733 230.5,328.5 Z"/></g>
<g><path style="opacity:0.979" fill="#544e53" d="M 217.5,334.5 C 216.316,335.688 216.316,336.855 217.5,338C 215.869,339.836 215.202,339.336 215.5,336.5C 213.139,336.674 210.806,337.007 208.5,337.5C 211.084,335.528 214.084,334.528 217.5,334.5 Z"/></g>
<g><path style="opacity:0.769" fill="#696566" d="M 272.5,339.5 C 270.909,341.633 268.909,343.299 266.5,344.5C 266.586,343.504 266.252,342.671 265.5,342C 266.833,341.667 268.167,341.333 269.5,341C 268.549,340.282 268.383,339.449 269,338.5C 270.011,339.337 271.178,339.67 272.5,339.5 Z"/></g>
<g><path style="opacity:0.153" fill="#ada8ad" d="M 279.5,338.5 C 278.833,339.833 277.833,340.833 276.5,341.5C 276.5,339.5 277.5,338.5 279.5,338.5 Z"/></g>
<g><path style="opacity:0.267" fill="#888383" d="M 120.5,336.5 C 120.483,340.534 119.483,344.201 117.5,347.5C 117.926,343.573 118.926,339.907 120.5,336.5 Z"/></g>
<g><path style="opacity:0.894" fill="#52484a" d="M 266.5,344.5 C 263.525,347.323 260.192,349.656 256.5,351.5C 256.67,350.178 256.337,349.011 255.5,348C 257.473,347.505 259.473,347.338 261.5,347.5C 261.281,346.325 261.614,345.325 262.5,344.5C 263.726,345.363 265.06,345.363 266.5,344.5 Z"/></g>
<g><path style="opacity:0.349" fill="#646164" d="M 269.5,347.5 C 268.415,349.587 266.749,350.92 264.5,351.5C 265.585,349.413 267.251,348.08 269.5,347.5 Z"/></g>
<g><path style="opacity:0.02" fill="#a2a1a2" d="M 249.5,356.5 C 248.486,357.674 247.153,358.34 245.5,358.5C 246.287,356.896 247.62,356.229 249.5,356.5 Z"/></g>
<g><path style="opacity:0.016" fill="#c29a9a" d="M 382.5,358.5 C 382.027,359.906 381.027,360.573 379.5,360.5C 379.973,359.094 380.973,358.427 382.5,358.5 Z"/></g>
<g><path style="opacity:0.024" fill="#cac4c4" d="M 117.5,359.5 C 119.027,359.427 120.027,360.094 120.5,361.5C 118.973,361.573 117.973,360.906 117.5,359.5 Z"/></g>
<g><path style="opacity:0.854" fill="#5f595a" d="M 245.5,358.5 C 241.877,361.054 237.877,363.054 233.5,364.5C 233.539,363.417 233.873,362.417 234.5,361.5C 238.211,360.605 241.878,359.605 245.5,358.5 Z"/></g>
<g><path style="opacity:0.098" fill="#858181" d="M 379.5,360.5 C 377.819,362.008 375.819,363.008 373.5,363.5C 374.911,361.461 376.911,360.461 379.5,360.5 Z"/></g>
<g><path style="opacity:0.976" fill="#3a3434" d="M 146.5,370.5 C 142.681,370.395 139.014,369.562 135.5,368C 130.433,366.488 125.767,364.321 121.5,361.5C 122.873,361.657 124.207,361.49 125.5,361C 122.937,360.237 122.937,359.737 125.5,359.5C 128.185,359.708 128.851,360.875 127.5,363C 128.333,363.167 129.167,363.333 130,363.5C 135.081,360.868 138.581,362.368 140.5,368C 142.723,368.566 144.723,369.4 146.5,370.5 Z"/></g>
<g><path style="opacity:0.012" fill="#d6d3d3" d="M 373.5,363.5 C 372.486,364.674 371.153,365.34 369.5,365.5C 370.287,363.896 371.62,363.229 373.5,363.5 Z"/></g>
<g><path style="opacity:0.942" fill="#342e30" d="M 264.5,351.5 C 264.047,352.458 263.381,353.292 262.5,354C 266.5,354.667 266.5,355.333 262.5,356C 262.833,356.333 263.167,356.667 263.5,357C 262.692,357.308 262.025,357.808 261.5,358.5C 262.641,359.425 262.641,360.259 261.5,361C 262.665,362.084 263.998,362.917 265.5,363.5C 266.688,362.16 268.188,361.493 270,361.5C 272.89,362.13 275.724,362.963 278.5,364C 277.833,364.333 277.167,364.667 276.5,365C 278.324,365.66 279.657,366.827 280.5,368.5C 278.833,368.5 277.167,368.5 275.5,368.5C 267.731,366.948 260.731,363.781 254.5,359C 257.104,355.567 260.438,353.067 264.5,351.5 Z"/></g>
<g><path style="opacity:0.361" fill="#7d797a" d="M 275.5,368.5 C 277.167,368.5 278.833,368.5 280.5,368.5C 281.5,369.167 282.5,369.833 283.5,370.5C 280.505,370.706 277.838,370.04 275.5,368.5 Z"/></g>
<g><path style="opacity:0.184" fill="#868183" d="M 365.5,366.5 C 362.482,368.4 359.149,369.733 355.5,370.5C 355.577,369.25 356.244,368.417 357.5,368C 360.168,367.433 362.834,366.933 365.5,366.5 Z"/></g>
<g><path style="opacity:0.082" fill="#857c7c" d="M 283.5,370.5 C 286.495,370.294 289.162,370.96 291.5,372.5C 288.572,372.435 285.905,371.768 283.5,370.5 Z"/></g>
<g><path style="opacity:0.02" fill="#c2b8be" d="M 348.5,371.5 C 346.162,373.04 343.495,373.706 340.5,373.5C 342.905,372.232 345.572,371.565 348.5,371.5 Z"/></g>
</svg>
